<?xml version="1.0" encoding="UTF-8"?>
<svg xmlns="http://www.w3.org/2000/svg" width="256" height="256" viewBox="0 0 256 256" data-device-label="SMALL FIX">
  <defs>
    <radialGradient id="wash" cx="50%" cy="20%" r="85%">
      <stop offset="0" stop-color="#FFB84D" stop-opacity="0.26"/>
      <stop offset="0.58" stop-color="#0B111C" stop-opacity="0.94"/>
      <stop offset="1" stop-color="#05070C"/>
    </radialGradient>
    <linearGradient id="labelBand" x1="0" y1="0" x2="0" y2="1">
      <stop offset="0" stop-color="#101725" stop-opacity="0.96"/>
      <stop offset="1" stop-color="#05070C" stop-opacity="0.99"/>
    </linearGradient>
    <filter id="glow" x="-40%" y="-40%" width="180%" height="180%">
      <feGaussianBlur stdDeviation="3" result="blur"/>
      <feMerge><feMergeNode in="blur"/><feMergeNode in="SourceGraphic"/></feMerge>
    </filter>
  </defs>
  <rect x="8" y="8" width="240" height="240" rx="48" fill="#05070C"/>
  <rect x="12" y="12" width="232" height="232" rx="44" fill="url(#wash)" stroke="#FFB84D" stroke-width="5"/>
  <g transform="translate(58 5) scale(.55)" filter="url(#glow)"><g fill="none" stroke="#F7FBFF" stroke-width="13" stroke-linecap="round" stroke-linejoin="round"><path d="M54 202 147 109M139 55a43 43 0 0 0 52 52l-31 31-42-42 31-31a43 43 0 0 0-10-10ZM47 209l-10-34 25 8 8 25Z"/><path d="m190 34 7 19 19 7-19 7-7 19-7-19-19-7 19-7Z"/></g></g>
  <rect x="18" y="148" width="220" height="88" rx="25" fill="url(#labelBand)" stroke="#FFB84D" stroke-opacity="0.5" stroke-width="2"/>
  <g id="device-label" aria-label="SMALL FIX">
    <text x="128" y="181" text-anchor="middle" font-family="Arial Rounded MT Bold,Arial,Helvetica,sans-serif" font-size="25" font-weight="700" letter-spacing="0.4" fill="#F7FBFF">SMALL</text>
    <text x="128" y="209" text-anchor="middle" font-family="Arial Rounded MT Bold,Arial,Helvetica,sans-serif" font-size="25" font-weight="700" letter-spacing="0.4" fill="#F7FBFF">FIX</text>
  </g>
  <rect x="72" y="228" width="112" height="6" rx="3" fill="#FFB84D" filter="url(#glow)"/>
</svg>
