<?xml version="1.0" encoding="UTF-8"?>
<svg xmlns="http://www.w3.org/2000/svg" width="256" height="256" viewBox="0 0 256 256" data-device-label="CANVA">
  <defs>
    <radialGradient id="wash" cx="50%" cy="20%" r="85%">
      <stop offset="0" stop-color="#A77BFF" stop-opacity="0.26"/>
      <stop offset="0.58" stop-color="#0B111C" stop-opacity="0.94"/>
      <stop offset="1" stop-color="#05070C"/>
    </radialGradient>
    <linearGradient id="labelBand" x1="0" y1="0" x2="0" y2="1">
      <stop offset="0" stop-color="#101725" stop-opacity="0.96"/>
      <stop offset="1" stop-color="#05070C" stop-opacity="0.99"/>
    </linearGradient>
    <filter id="glow" x="-40%" y="-40%" width="180%" height="180%">
      <feGaussianBlur stdDeviation="3" result="blur"/>
      <feMerge><feMergeNode in="blur"/><feMergeNode in="SourceGraphic"/></feMerge>
    </filter>
  </defs>
  <rect x="8" y="8" width="240" height="240" rx="48" fill="#05070C"/>
  <rect x="12" y="12" width="232" height="232" rx="44" fill="url(#wash)" stroke="#A77BFF" stroke-width="5"/>
  <g transform="translate(58 5) scale(.55)" filter="url(#glow)"><g fill="none" stroke="#F7FBFF" stroke-width="13" stroke-linecap="round" stroke-linejoin="round"><path d="M190 72c-19-27-62-33-95-9-39 28-48 84-15 119 31 34 86 32 111-2M81 181c-13 20-8 43 11 45 30 3 44-34 62-63 13-21 25-30 39-28 12 2 17 13 13 27"/></g></g>
  <rect x="18" y="148" width="220" height="88" rx="25" fill="url(#labelBand)" stroke="#A77BFF" stroke-opacity="0.5" stroke-width="2"/>
  <g id="device-label" aria-label="CANVA">
    <text x="128" y="198" text-anchor="middle" font-family="Arial Rounded MT Bold,Arial,Helvetica,sans-serif" font-size="31" font-weight="700" letter-spacing="0.4" fill="#F7FBFF">CANVA</text>
  </g>
  <rect x="72" y="228" width="112" height="6" rx="3" fill="#A77BFF" filter="url(#glow)"/>
</svg>
