<?xml version="1.0" encoding="UTF-8"?>
<svg xmlns="http://www.w3.org/2000/svg" width="256" height="256" viewBox="0 0 256 256" data-device-label="GITHUB">
  <defs>
    <radialGradient id="wash" cx="50%" cy="20%" r="85%">
      <stop offset="0" stop-color="#B5C4D8" stop-opacity="0.26"/>
      <stop offset="0.58" stop-color="#0B111C" stop-opacity="0.94"/>
      <stop offset="1" stop-color="#05070C"/>
    </radialGradient>
    <linearGradient id="labelBand" x1="0" y1="0" x2="0" y2="1">
      <stop offset="0" stop-color="#101725" stop-opacity="0.96"/>
      <stop offset="1" stop-color="#05070C" stop-opacity="0.99"/>
    </linearGradient>
    <filter id="glow" x="-40%" y="-40%" width="180%" height="180%">
      <feGaussianBlur stdDeviation="3" result="blur"/>
      <feMerge><feMergeNode in="blur"/><feMergeNode in="SourceGraphic"/></feMerge>
    </filter>
  </defs>
  <rect x="8" y="8" width="240" height="240" rx="48" fill="#05070C"/>
  <rect x="12" y="12" width="232" height="232" rx="44" fill="url(#wash)" stroke="#B5C4D8" stroke-width="5"/>
  <g transform="translate(58 5) scale(.55)" filter="url(#glow)"><g fill="none" stroke="#F7FBFF" stroke-width="13" stroke-linecap="round" stroke-linejoin="round"><path d="M128 35a93 93 0 0 0-29 181c5 1 7-2 7-5v-18c-29 6-35-12-35-12-5-12-12-15-12-15-10-7 1-7 1-7 11 1 17 11 17 11 10 17 25 12 31 9 1-7 4-12 7-15-23-3-47-12-47-50 0-11 4-21 11-28-1-3-5-13 1-28 0 0 9-3 30 11a103 103 0 0 1 55 0c21-14 30-11 30-11 6 15 2 25 1 28 7 7 11 17 11 28 0 38-24 47-47 50 4 3 7 10 7 20v36c0 3 2 6 7 5A93 93 0 0 0 128 35Z"/></g></g>
  <rect x="18" y="148" width="220" height="88" rx="25" fill="url(#labelBand)" stroke="#B5C4D8" stroke-opacity="0.5" stroke-width="2"/>
  <g id="device-label" aria-label="GITHUB">
    <text x="128" y="198" text-anchor="middle" font-family="Arial Rounded MT Bold,Arial,Helvetica,sans-serif" font-size="31" font-weight="700" letter-spacing="0.4" fill="#F7FBFF">GITHUB</text>
  </g>
  <rect x="72" y="228" width="112" height="6" rx="3" fill="#B5C4D8" filter="url(#glow)"/>
</svg>
