<?xml version="1.0" encoding="UTF-8"?>
<svg xmlns="http://www.w3.org/2000/svg" width="256" height="256" viewBox="0 0 256 256" data-device-label="PDF">
  <defs>
    <radialGradient id="wash" cx="50%" cy="20%" r="85%">
      <stop offset="0" stop-color="#FF6B72" stop-opacity="0.26"/>
      <stop offset="0.58" stop-color="#0B111C" stop-opacity="0.94"/>
      <stop offset="1" stop-color="#05070C"/>
    </radialGradient>
    <linearGradient id="labelBand" x1="0" y1="0" x2="0" y2="1">
      <stop offset="0" stop-color="#101725" stop-opacity="0.96"/>
      <stop offset="1" stop-color="#05070C" stop-opacity="0.99"/>
    </linearGradient>
    <filter id="glow" x="-40%" y="-40%" width="180%" height="180%">
      <feGaussianBlur stdDeviation="3" result="blur"/>
      <feMerge><feMergeNode in="blur"/><feMergeNode in="SourceGraphic"/></feMerge>
    </filter>
  </defs>
  <rect x="8" y="8" width="240" height="240" rx="48" fill="#05070C"/>
  <rect x="12" y="12" width="232" height="232" rx="44" fill="url(#wash)" stroke="#FF6B72" stroke-width="5"/>
  <g transform="translate(58 5) scale(.55)" filter="url(#glow)"><g fill="none" stroke="#F7FBFF" stroke-width="13" stroke-linecap="round" stroke-linejoin="round"><path d="M53 30h102l48 48v148H53Z"/><path d="M155 30v57h48M78 181c31-54 60-86 83-97M83 141c25 24 58 33 95 27M108 89c-4 47 6 83 30 109"/></g></g>
  <rect x="18" y="148" width="220" height="88" rx="25" fill="url(#labelBand)" stroke="#FF6B72" stroke-opacity="0.5" stroke-width="2"/>
  <g id="device-label" aria-label="PDF">
    <text x="128" y="198" text-anchor="middle" font-family="Arial Rounded MT Bold,Arial,Helvetica,sans-serif" font-size="31" font-weight="700" letter-spacing="0.4" fill="#F7FBFF">PDF</text>
  </g>
  <rect x="72" y="228" width="112" height="6" rx="3" fill="#FF6B72" filter="url(#glow)"/>
</svg>
